<mxfile host="app.diagrams.net" modified="2023-03-30T06:05:30.340Z" agent="Mozilla/5.0 (Windows NT 10.0; Win64; x64) AppleWebKit/537.36 (KHTML, like Gecko) Chrome/111.0.0.0 Safari/537.36" etag="dymUQGdGB6m5YGTFqNLD" version="21.1.1" type="github">
  <diagram id="C5RBs43oDa-KdzZeNtuy" name="Page-1">
    <mxGraphModel dx="1477" dy="572" grid="0" gridSize="10" guides="1" tooltips="1" connect="1" arrows="1" fold="1" page="0" pageScale="1" pageWidth="827" pageHeight="1169" math="0" shadow="0">
      <root>
        <mxCell id="WIyWlLk6GJQsqaUBKTNV-0" />
        <mxCell id="WIyWlLk6GJQsqaUBKTNV-1" parent="WIyWlLk6GJQsqaUBKTNV-0" />
        <mxCell id="qXBqydrz_M-4K50iegcu-25" value="" style="rounded=0;whiteSpace=wrap;html=1;dashed=1;fillColor=#f5f5f5;fontColor=#333333;strokeColor=#666666;" parent="WIyWlLk6GJQsqaUBKTNV-1" vertex="1">
          <mxGeometry x="-380" y="310" width="260" height="180" as="geometry" />
        </mxCell>
        <mxCell id="qXBqydrz_M-4K50iegcu-34" value="" style="rounded=0;whiteSpace=wrap;html=1;dashed=1;fillColor=#f5f5f5;fontColor=#333333;strokeColor=#666666;" parent="WIyWlLk6GJQsqaUBKTNV-1" vertex="1">
          <mxGeometry x="-100" y="310" width="490" height="270" as="geometry" />
        </mxCell>
        <mxCell id="WIyWlLk6GJQsqaUBKTNV-2" value="" style="rounded=0;html=1;jettySize=auto;orthogonalLoop=1;fontSize=11;endArrow=classic;endFill=1;endSize=8;strokeWidth=1;shadow=0;labelBackgroundColor=none;edgeStyle=orthogonalEdgeStyle;" parent="WIyWlLk6GJQsqaUBKTNV-1" source="WIyWlLk6GJQsqaUBKTNV-3" target="qXBqydrz_M-4K50iegcu-0" edge="1">
          <mxGeometry relative="1" as="geometry">
            <mxPoint x="-235" y="340" as="targetPoint" />
          </mxGeometry>
        </mxCell>
        <mxCell id="WIyWlLk6GJQsqaUBKTNV-3" value="&lt;font style=&quot;font-size: 18px;&quot;&gt;开始&lt;/font&gt;" style="rounded=1;whiteSpace=wrap;html=1;fontSize=12;glass=0;strokeWidth=1;shadow=0;" parent="WIyWlLk6GJQsqaUBKTNV-1" vertex="1">
          <mxGeometry x="-295" y="250" width="120" height="40" as="geometry" />
        </mxCell>
        <mxCell id="qXBqydrz_M-4K50iegcu-3" style="edgeStyle=orthogonalEdgeStyle;rounded=0;orthogonalLoop=1;jettySize=auto;html=1;exitX=0.5;exitY=1;exitDx=0;exitDy=0;entryX=0.5;entryY=0;entryDx=0;entryDy=0;" parent="WIyWlLk6GJQsqaUBKTNV-1" source="qXBqydrz_M-4K50iegcu-0" target="qXBqydrz_M-4K50iegcu-2" edge="1">
          <mxGeometry relative="1" as="geometry" />
        </mxCell>
        <mxCell id="qXBqydrz_M-4K50iegcu-0" value="&lt;font style=&quot;font-size: 18px;&quot;&gt;命令行解析&lt;/font&gt;" style="rounded=0;whiteSpace=wrap;html=1;" parent="WIyWlLk6GJQsqaUBKTNV-1" vertex="1">
          <mxGeometry x="-320" y="330" width="170" height="50" as="geometry" />
        </mxCell>
        <mxCell id="qXBqydrz_M-4K50iegcu-5" style="edgeStyle=orthogonalEdgeStyle;rounded=0;orthogonalLoop=1;jettySize=auto;html=1;exitX=0.5;exitY=1;exitDx=0;exitDy=0;entryX=0.5;entryY=0;entryDx=0;entryDy=0;" parent="WIyWlLk6GJQsqaUBKTNV-1" source="qXBqydrz_M-4K50iegcu-2" target="qXBqydrz_M-4K50iegcu-4" edge="1">
          <mxGeometry relative="1" as="geometry" />
        </mxCell>
        <mxCell id="qXBqydrz_M-4K50iegcu-2" value="&lt;font style=&quot;font-size: 18px;&quot;&gt;配置文件解析&lt;/font&gt;" style="rounded=0;whiteSpace=wrap;html=1;" parent="WIyWlLk6GJQsqaUBKTNV-1" vertex="1">
          <mxGeometry x="-320" y="420" width="170" height="50" as="geometry" />
        </mxCell>
        <mxCell id="qXBqydrz_M-4K50iegcu-13" style="edgeStyle=orthogonalEdgeStyle;rounded=0;orthogonalLoop=1;jettySize=auto;html=1;exitX=1;exitY=0.5;exitDx=0;exitDy=0;entryX=0;entryY=0.5;entryDx=0;entryDy=0;" parent="WIyWlLk6GJQsqaUBKTNV-1" source="qXBqydrz_M-4K50iegcu-4" target="qXBqydrz_M-4K50iegcu-12" edge="1">
          <mxGeometry relative="1" as="geometry" />
        </mxCell>
        <mxCell id="qXBqydrz_M-4K50iegcu-4" value="&lt;span style=&quot;font-size: 18px;&quot;&gt;为节点分配进程&lt;/span&gt;" style="rounded=0;whiteSpace=wrap;html=1;" parent="WIyWlLk6GJQsqaUBKTNV-1" vertex="1">
          <mxGeometry x="-320" y="514.5" width="170" height="50" as="geometry" />
        </mxCell>
        <mxCell id="qXBqydrz_M-4K50iegcu-7" value="&lt;font style=&quot;font-size: 14px;&quot;&gt;调用&lt;/font&gt;" style="text;html=1;strokeColor=none;fillColor=none;align=center;verticalAlign=middle;whiteSpace=wrap;rounded=0;" parent="WIyWlLk6GJQsqaUBKTNV-1" vertex="1">
          <mxGeometry x="10" y="250" width="20" height="80" as="geometry" />
        </mxCell>
        <mxCell id="qXBqydrz_M-4K50iegcu-16" style="edgeStyle=orthogonalEdgeStyle;rounded=0;orthogonalLoop=1;jettySize=auto;html=1;exitX=0.5;exitY=0;exitDx=0;exitDy=0;entryX=0.5;entryY=1;entryDx=0;entryDy=0;" parent="WIyWlLk6GJQsqaUBKTNV-1" source="qXBqydrz_M-4K50iegcu-12" target="qXBqydrz_M-4K50iegcu-14" edge="1">
          <mxGeometry relative="1" as="geometry" />
        </mxCell>
        <mxCell id="qXBqydrz_M-4K50iegcu-12" value="&lt;span style=&quot;font-size: 18px;&quot;&gt;特征筛选&lt;/span&gt;" style="rounded=0;whiteSpace=wrap;html=1;" parent="WIyWlLk6GJQsqaUBKTNV-1" vertex="1">
          <mxGeometry x="-80" y="515" width="170" height="50" as="geometry" />
        </mxCell>
        <mxCell id="qXBqydrz_M-4K50iegcu-17" style="edgeStyle=orthogonalEdgeStyle;rounded=0;orthogonalLoop=1;jettySize=auto;html=1;exitX=0.5;exitY=0;exitDx=0;exitDy=0;entryX=0.5;entryY=1;entryDx=0;entryDy=0;" parent="WIyWlLk6GJQsqaUBKTNV-1" source="qXBqydrz_M-4K50iegcu-14" target="qXBqydrz_M-4K50iegcu-15" edge="1">
          <mxGeometry relative="1" as="geometry" />
        </mxCell>
        <mxCell id="qXBqydrz_M-4K50iegcu-14" value="&lt;span style=&quot;font-size: 18px;&quot;&gt;更新局部变量&lt;/span&gt;" style="rounded=0;whiteSpace=wrap;html=1;" parent="WIyWlLk6GJQsqaUBKTNV-1" vertex="1">
          <mxGeometry x="-80" y="420" width="170" height="50" as="geometry" />
        </mxCell>
        <mxCell id="qXBqydrz_M-4K50iegcu-19" style="edgeStyle=orthogonalEdgeStyle;rounded=0;orthogonalLoop=1;jettySize=auto;html=1;exitX=0.5;exitY=0;exitDx=0;exitDy=0;entryX=0.5;entryY=1;entryDx=0;entryDy=0;dashed=1;" parent="WIyWlLk6GJQsqaUBKTNV-1" source="qXBqydrz_M-4K50iegcu-15" target="qXBqydrz_M-4K50iegcu-18" edge="1">
          <mxGeometry relative="1" as="geometry">
            <Array as="points">
              <mxPoint x="5" y="300" />
              <mxPoint x="5" y="300" />
            </Array>
          </mxGeometry>
        </mxCell>
        <mxCell id="qXBqydrz_M-4K50iegcu-24" style="edgeStyle=orthogonalEdgeStyle;rounded=0;orthogonalLoop=1;jettySize=auto;html=1;exitX=1;exitY=0.5;exitDx=0;exitDy=0;" parent="WIyWlLk6GJQsqaUBKTNV-1" source="qXBqydrz_M-4K50iegcu-15" target="qXBqydrz_M-4K50iegcu-22" edge="1">
          <mxGeometry relative="1" as="geometry" />
        </mxCell>
        <mxCell id="qXBqydrz_M-4K50iegcu-15" value="&lt;span style=&quot;font-size: 18px;&quot;&gt;更新全局变量&lt;/span&gt;" style="rounded=0;whiteSpace=wrap;html=1;" parent="WIyWlLk6GJQsqaUBKTNV-1" vertex="1">
          <mxGeometry x="-80" y="330" width="170" height="50" as="geometry" />
        </mxCell>
        <mxCell id="qXBqydrz_M-4K50iegcu-18" value="&lt;font style=&quot;font-size: 18px;&quot;&gt;通信层模块&lt;/font&gt;" style="rounded=0;whiteSpace=wrap;html=1;dashed=1;fillColor=#f5f5f5;fontColor=#333333;strokeColor=#666666;" parent="WIyWlLk6GJQsqaUBKTNV-1" vertex="1">
          <mxGeometry x="-55" y="210" width="120" height="60" as="geometry" />
        </mxCell>
        <mxCell id="qXBqydrz_M-4K50iegcu-27" style="edgeStyle=orthogonalEdgeStyle;rounded=0;orthogonalLoop=1;jettySize=auto;html=1;exitX=0.5;exitY=1;exitDx=0;exitDy=0;entryX=0.5;entryY=0;entryDx=0;entryDy=0;" parent="WIyWlLk6GJQsqaUBKTNV-1" source="qXBqydrz_M-4K50iegcu-22" target="qXBqydrz_M-4K50iegcu-26" edge="1">
          <mxGeometry relative="1" as="geometry" />
        </mxCell>
        <mxCell id="qXBqydrz_M-4K50iegcu-22" value="&lt;span style=&quot;font-size: 18px;&quot;&gt;更新对偶变量&lt;/span&gt;" style="rounded=0;whiteSpace=wrap;html=1;" parent="WIyWlLk6GJQsqaUBKTNV-1" vertex="1">
          <mxGeometry x="170" y="330" width="170" height="50" as="geometry" />
        </mxCell>
        <mxCell id="qXBqydrz_M-4K50iegcu-28" style="edgeStyle=orthogonalEdgeStyle;rounded=0;orthogonalLoop=1;jettySize=auto;html=1;exitX=0;exitY=0.5;exitDx=0;exitDy=0;" parent="WIyWlLk6GJQsqaUBKTNV-1" source="qXBqydrz_M-4K50iegcu-26" target="qXBqydrz_M-4K50iegcu-14" edge="1">
          <mxGeometry relative="1" as="geometry" />
        </mxCell>
        <mxCell id="qXBqydrz_M-4K50iegcu-33" style="edgeStyle=orthogonalEdgeStyle;rounded=0;orthogonalLoop=1;jettySize=auto;html=1;exitX=0.5;exitY=1;exitDx=0;exitDy=0;entryX=0.5;entryY=0;entryDx=0;entryDy=0;" parent="WIyWlLk6GJQsqaUBKTNV-1" source="qXBqydrz_M-4K50iegcu-26" target="qXBqydrz_M-4K50iegcu-30" edge="1">
          <mxGeometry relative="1" as="geometry" />
        </mxCell>
        <mxCell id="qXBqydrz_M-4K50iegcu-26" value="&lt;font style=&quot;font-size: 18px;&quot;&gt;是否停止&lt;/font&gt;" style="rhombus;whiteSpace=wrap;html=1;" parent="WIyWlLk6GJQsqaUBKTNV-1" vertex="1">
          <mxGeometry x="180" y="405" width="150" height="80" as="geometry" />
        </mxCell>
        <mxCell id="qXBqydrz_M-4K50iegcu-29" value="&lt;font style=&quot;font-size: 18px;&quot;&gt;否&lt;/font&gt;" style="text;html=1;strokeColor=none;fillColor=none;align=center;verticalAlign=middle;whiteSpace=wrap;rounded=0;" parent="WIyWlLk6GJQsqaUBKTNV-1" vertex="1">
          <mxGeometry x="110" y="410" width="60" height="30" as="geometry" />
        </mxCell>
        <mxCell id="qXBqydrz_M-4K50iegcu-56" value="" style="edgeStyle=orthogonalEdgeStyle;rounded=0;orthogonalLoop=1;jettySize=auto;html=1;" parent="WIyWlLk6GJQsqaUBKTNV-1" source="qXBqydrz_M-4K50iegcu-30" target="qXBqydrz_M-4K50iegcu-41" edge="1">
          <mxGeometry relative="1" as="geometry" />
        </mxCell>
        <mxCell id="qXBqydrz_M-4K50iegcu-30" value="&lt;span style=&quot;font-size: 18px;&quot;&gt;输出全局变量&lt;/span&gt;" style="rounded=0;whiteSpace=wrap;html=1;" parent="WIyWlLk6GJQsqaUBKTNV-1" vertex="1">
          <mxGeometry x="170" y="514.5" width="170" height="50" as="geometry" />
        </mxCell>
        <mxCell id="qXBqydrz_M-4K50iegcu-41" value="&lt;span style=&quot;font-size: 18px;&quot;&gt;结束&lt;/span&gt;" style="rounded=1;whiteSpace=wrap;html=1;fontSize=12;glass=0;strokeWidth=1;shadow=0;" parent="WIyWlLk6GJQsqaUBKTNV-1" vertex="1">
          <mxGeometry x="400" y="520" width="120" height="40" as="geometry" />
        </mxCell>
        <mxCell id="qXBqydrz_M-4K50iegcu-43" value="&lt;span style=&quot;font-size: 18px;&quot;&gt;通信层&lt;br&gt;模块&lt;br&gt;&lt;/span&gt;" style="text;html=1;strokeColor=none;fillColor=none;align=center;verticalAlign=middle;whiteSpace=wrap;rounded=0;" parent="WIyWlLk6GJQsqaUBKTNV-1" vertex="1">
          <mxGeometry x="-390" y="300" width="80" height="190" as="geometry" />
        </mxCell>
        <mxCell id="qXBqydrz_M-4K50iegcu-54" value="&lt;font style=&quot;font-size: 18px;&quot;&gt;A&lt;br&gt;D&lt;br&gt;M&lt;br&gt;M&lt;br&gt;算&lt;br&gt;法&lt;br&gt;模&lt;br&gt;块&lt;/font&gt;" style="rounded=0;whiteSpace=wrap;html=1;strokeWidth=0;fillColor=#f5f5f5;fontColor=#333333;strokeColor=none;" parent="WIyWlLk6GJQsqaUBKTNV-1" vertex="1">
          <mxGeometry x="360" y="355" width="20" height="160" as="geometry" />
        </mxCell>
        <mxCell id="qXBqydrz_M-4K50iegcu-59" style="edgeStyle=orthogonalEdgeStyle;rounded=0;orthogonalLoop=1;jettySize=auto;html=1;exitX=0.5;exitY=0;exitDx=0;exitDy=0;entryX=0.5;entryY=1;entryDx=0;entryDy=0;shape=flexArrow;" parent="WIyWlLk6GJQsqaUBKTNV-1" source="qXBqydrz_M-4K50iegcu-57" target="qXBqydrz_M-4K50iegcu-34" edge="1">
          <mxGeometry relative="1" as="geometry" />
        </mxCell>
        <mxCell id="qXBqydrz_M-4K50iegcu-57" value="&lt;span style=&quot;font-size: 18px;&quot;&gt;容错支持模块&lt;/span&gt;" style="rounded=0;whiteSpace=wrap;html=1;dashed=1;fillColor=#f5f5f5;fontColor=#333333;strokeColor=#666666;" parent="WIyWlLk6GJQsqaUBKTNV-1" vertex="1">
          <mxGeometry x="-20" y="620" width="330" height="50" as="geometry" />
        </mxCell>
        <mxCell id="qXBqydrz_M-4K50iegcu-60" value="&lt;span style=&quot;font-size: 14px;&quot;&gt;支持&lt;/span&gt;" style="text;html=1;strokeColor=none;fillColor=none;align=center;verticalAlign=middle;whiteSpace=wrap;rounded=0;" parent="WIyWlLk6GJQsqaUBKTNV-1" vertex="1">
          <mxGeometry x="170" y="560" width="20" height="80" as="geometry" />
        </mxCell>
        <mxCell id="0IgCsBMW5lBaj0GZ36sf-1" value="&lt;span style=&quot;font-size: 18px;&quot;&gt;是&lt;/span&gt;" style="text;html=1;strokeColor=none;fillColor=none;align=center;verticalAlign=middle;whiteSpace=wrap;rounded=0;" vertex="1" parent="WIyWlLk6GJQsqaUBKTNV-1">
          <mxGeometry x="257" y="481" width="60" height="30" as="geometry" />
        </mxCell>
      </root>
    </mxGraphModel>
  </diagram>
</mxfile>
